<svg xmlns="http://www.w3.org/2000/svg" width="1200" height="630" viewBox="0 0 1200 630" role="img" aria-labelledby="title desc">
  <title id="title">Lonely Hearts Club</title>
  <desc id="desc">Social preview for Lonely Hearts Club, a dating app for matching, chatting and anonymous calling.</desc>
  <defs>
    <radialGradient id="glow1" cx="18%" cy="18%" r="56%">
      <stop offset="0%" stop-color="#b14e30" stop-opacity=".28"/>
      <stop offset="100%" stop-color="#b14e30" stop-opacity="0"/>
    </radialGradient>
    <radialGradient id="glow2" cx="82%" cy="72%" r="54%">
      <stop offset="0%" stop-color="#2f655d" stop-opacity=".32"/>
      <stop offset="100%" stop-color="#2f655d" stop-opacity="0"/>
    </radialGradient>
    <linearGradient id="heart" x1="444" x2="756" y1="144" y2="468">
      <stop offset="0%" stop-color="#f1c75b"/>
      <stop offset="55%" stop-color="#b14e30"/>
      <stop offset="100%" stop-color="#2f655d"/>
    </linearGradient>
  </defs>
  <rect width="1200" height="630" fill="#f8f4ed"/>
  <rect width="1200" height="630" fill="url(#glow1)"/>
  <rect width="1200" height="630" fill="url(#glow2)"/>
  <circle cx="600" cy="270" r="134" fill="#1d1a16" opacity=".96"/>
  <circle cx="600" cy="270" r="112" fill="none" stroke="#f1c75b" stroke-width="5" stroke-dasharray="7 14"/>
  <path fill="url(#heart)" d="M600 362 518 284c-34-32-39-78-11-105 26-25 67-19 93 14 26-33 67-39 93-14 28 27 23 73-11 105L600 362Z"/>
  <path fill="none" stroke="#fffdfa" stroke-linecap="round" stroke-width="12" d="M506 282c22-25 44-25 66 0s44 25 66 0 44-25 66 0"/>
  <text x="600" y="78" text-anchor="middle" fill="#9a4329" font-family="Inter, Arial, sans-serif" font-size="24" font-weight="900" letter-spacing="6">PRIVACY-FIRST DATING IN NEDERLAND</text>
  <text x="600" y="500" text-anchor="middle" fill="#1d1a16" font-family="Georgia, serif" font-size="76" font-weight="900">Lonely Hearts Club</text>
  <text x="600" y="562" text-anchor="middle" fill="#413832" font-family="Inter, Arial, sans-serif" font-size="34" font-weight="800">Match, chat en bel anoniem voordat je afspreekt</text>
</svg>
